<svg xmlns="http://www.w3.org/2000/svg" xmlns:xlink="http://www.w3.org/1999/xlink" width="300" zoomAndPan="magnify" viewBox="0 0 224.87999 225" height="300" preserveAspectRatio="xMidYMid meet" version="1.0"><defs><clipPath id="8386236d8d"><path d="M 0 0.0585938 L 224.761719 0.0585938 L 224.761719 224.9375 L 0 224.9375 Z M 0 0.0585938 " clip-rule="nonzero"/></clipPath><clipPath id="fd7e9cd9d0"><path d="M 50 13.554688 L 175 13.554688 L 175 96 L 50 96 Z M 50 13.554688 " clip-rule="nonzero"/></clipPath><clipPath id="981b8b8fcd"><path d="M 100 42 L 224.761719 42 L 224.761719 125 L 100 125 Z M 100 42 " clip-rule="nonzero"/></clipPath><clipPath id="4b35324ce3"><path d="M 150 71 L 201 71 L 201 211.445312 L 150 211.445312 Z M 150 71 " clip-rule="nonzero"/></clipPath><clipPath id="c2c866af9e"><path d="M 50 129 L 175 129 L 175 211.445312 L 50 211.445312 Z M 50 129 " clip-rule="nonzero"/></clipPath><clipPath id="7a19888862"><path d="M 24 13.554688 L 75 13.554688 L 75 154 L 24 154 Z M 24 13.554688 " clip-rule="nonzero"/></clipPath></defs><g clip-path="url(#8386236d8d)"><path fill="#ffffff" d="M 0 0.0585938 L 224.878906 0.0585938 L 224.878906 232.4375 L 0 232.4375 Z M 0 0.0585938 " fill-opacity="1" fill-rule="nonzero"/><path fill="#ffffff" d="M 0 0.0585938 L 224.878906 0.0585938 L 224.878906 224.941406 L 0 224.941406 Z M 0 0.0585938 " fill-opacity="1" fill-rule="nonzero"/><path fill="#ffffff" d="M 0 0.0585938 L 224.878906 0.0585938 L 224.878906 224.941406 L 0 224.941406 Z M 0 0.0585938 " fill-opacity="1" fill-rule="nonzero"/></g><g clip-path="url(#fd7e9cd9d0)"><path fill="#2aa873" d="M 70.582031 91.910156 C 72.734375 89.757812 74.066406 86.785156 74.066406 83.503906 C 74.066406 80.535156 72.976562 77.820312 71.179688 75.738281 L 97.933594 29.394531 L 151.480469 29.394531 C 152.074219 31.09375 153.050781 32.621094 154.296875 33.871094 C 156.449219 36.019531 159.421875 37.351562 162.703125 37.351562 C 165.984375 37.351562 168.957031 36.019531 171.109375 33.871094 C 173.261719 31.71875 174.59375 28.746094 174.59375 25.464844 C 174.59375 22.179688 173.261719 19.207031 171.109375 17.058594 C 168.957031 14.90625 165.988281 13.574219 162.703125 13.574219 C 159.421875 13.574219 156.449219 14.90625 154.296875 17.058594 C 153.050781 18.304688 152.074219 19.832031 151.480469 21.535156 L 93.4375 21.535156 L 92.292969 23.511719 L 64.402344 71.824219 C 63.679688 71.6875 62.9375 71.617188 62.175781 71.617188 C 58.894531 71.617188 55.921875 72.945312 53.769531 75.097656 C 51.617188 77.25 50.289062 80.222656 50.289062 83.503906 C 50.289062 86.785156 51.617188 89.757812 53.769531 91.910156 C 55.921875 94.0625 58.894531 95.390625 62.175781 95.390625 C 65.457031 95.390625 68.429688 94.0625 70.582031 91.910156 Z M 59.328125 80.652344 C 60.054688 79.925781 61.0625 79.472656 62.175781 79.472656 C 63.289062 79.472656 64.296875 79.925781 65.027344 80.652344 C 65.753906 81.382812 66.203125 82.390625 66.203125 83.503906 C 66.203125 84.617188 65.753906 85.625 65.027344 86.351562 C 64.296875 87.082031 63.289062 87.53125 62.175781 87.53125 C 61.0625 87.53125 60.054688 87.082031 59.328125 86.351562 C 58.597656 85.625 58.148438 84.617188 58.148438 83.503906 C 58.148438 82.390625 58.597656 81.382812 59.328125 80.652344 Z M 159.855469 22.613281 C 160.585938 21.886719 161.589844 21.4375 162.703125 21.4375 C 163.816406 21.4375 164.824219 21.886719 165.554688 22.613281 C 166.28125 23.34375 166.734375 24.351562 166.734375 25.464844 C 166.734375 26.574219 166.28125 27.582031 165.554688 28.3125 C 164.824219 29.039062 163.816406 29.492188 162.703125 29.492188 C 161.589844 29.492188 160.585938 29.039062 159.855469 28.3125 C 159.125 27.582031 158.675781 26.574219 158.675781 25.464844 C 158.675781 24.351562 159.125 23.34375 159.855469 22.613281 " fill-opacity="1" fill-rule="evenodd"/></g><g clip-path="url(#981b8b8fcd)"><path fill="#57c59a" d="M 104.035156 62.890625 C 106.183594 65.039062 109.15625 66.371094 112.441406 66.371094 C 115.722656 66.371094 118.695312 65.039062 120.847656 62.890625 C 122.09375 61.640625 123.066406 60.117188 123.664062 58.414062 L 177.210938 58.414062 L 203.964844 104.757812 C 202.167969 106.839844 201.078125 109.554688 201.078125 112.523438 C 201.078125 115.804688 202.410156 118.777344 204.5625 120.929688 C 206.710938 123.082031 209.683594 124.410156 212.96875 124.410156 C 216.25 124.410156 219.222656 123.082031 221.375 120.929688 C 223.527344 118.777344 224.855469 115.804688 224.855469 112.523438 C 224.855469 109.242188 223.527344 106.269531 221.375 104.117188 C 219.222656 101.964844 216.25 100.636719 212.96875 100.636719 C 212.207031 100.636719 211.464844 100.707031 210.742188 100.84375 L 182.851562 52.535156 L 181.707031 50.554688 L 123.664062 50.554688 C 123.066406 48.851562 122.09375 47.324219 120.847656 46.078125 C 118.695312 43.925781 115.722656 42.59375 112.441406 42.59375 C 109.15625 42.59375 106.183594 43.925781 104.035156 46.078125 C 101.882812 48.230469 100.550781 51.199219 100.550781 54.484375 C 100.550781 57.765625 101.882812 60.738281 104.035156 62.890625 Z M 109.589844 57.332031 C 108.863281 56.601562 108.410156 55.59375 108.410156 54.484375 C 108.410156 53.371094 108.863281 52.363281 109.589844 51.636719 C 110.320312 50.90625 111.328125 50.453125 112.441406 50.453125 C 113.554688 50.453125 114.5625 50.90625 115.289062 51.636719 C 116.019531 52.363281 116.46875 53.371094 116.46875 54.484375 C 116.46875 55.59375 116.019531 56.601562 115.289062 57.332031 C 114.5625 58.0625 113.554688 58.511719 112.441406 58.511719 C 111.328125 58.511719 110.320312 58.0625 109.589844 57.332031 Z M 210.121094 109.671875 C 210.847656 108.945312 211.855469 108.496094 212.96875 108.496094 C 214.082031 108.496094 215.085938 108.945312 215.816406 109.671875 C 216.546875 110.402344 216.996094 111.410156 216.996094 112.523438 C 216.996094 113.636719 216.546875 114.644531 215.816406 115.371094 C 215.085938 116.101562 214.082031 116.550781 212.96875 116.550781 C 211.855469 116.550781 210.847656 116.101562 210.121094 115.371094 C 209.390625 114.644531 208.9375 113.636719 208.9375 112.523438 C 208.9375 111.410156 209.390625 110.402344 210.121094 109.671875 " fill-opacity="1" fill-rule="evenodd"/></g><g clip-path="url(#4b35324ce3)"><path fill="#6bcca6" d="M 150.8125 83.503906 C 150.8125 86.785156 152.144531 89.757812 154.296875 91.910156 C 156.449219 94.0625 159.421875 95.390625 162.703125 95.390625 C 163.464844 95.390625 164.207031 95.320312 164.929688 95.183594 L 191.695312 141.542969 L 164.929688 187.902344 C 164.207031 187.765625 163.464844 187.695312 162.703125 187.695312 C 159.421875 187.695312 156.449219 189.023438 154.296875 191.179688 C 152.144531 193.328125 150.8125 196.300781 150.8125 199.582031 C 150.8125 202.863281 152.144531 205.839844 154.296875 207.988281 C 156.449219 210.140625 159.421875 211.472656 162.703125 211.472656 C 165.988281 211.472656 168.957031 210.140625 171.109375 207.988281 C 173.261719 205.839844 174.59375 202.863281 174.59375 199.582031 C 174.59375 196.613281 173.503906 193.902344 171.707031 191.816406 L 199.605469 143.492188 L 200.730469 141.542969 L 199.605469 139.59375 L 171.707031 91.269531 C 173.503906 89.1875 174.59375 86.46875 174.59375 83.503906 C 174.59375 80.222656 173.261719 77.25 171.109375 75.097656 C 168.957031 72.945312 165.984375 71.617188 162.703125 71.617188 C 159.421875 71.617188 156.449219 72.945312 154.296875 75.097656 C 152.144531 77.25 150.8125 80.222656 150.8125 83.503906 Z M 162.703125 87.53125 C 161.589844 87.53125 160.585938 87.082031 159.855469 86.351562 C 159.125 85.625 158.675781 84.617188 158.675781 83.503906 C 158.675781 82.390625 159.125 81.382812 159.855469 80.652344 C 160.585938 79.925781 161.589844 79.472656 162.703125 79.472656 C 163.816406 79.472656 164.824219 79.925781 165.554688 80.652344 C 166.28125 81.382812 166.734375 82.390625 166.734375 83.503906 C 166.734375 84.617188 166.28125 85.625 165.554688 86.351562 C 164.824219 87.082031 163.816406 87.53125 162.703125 87.53125 Z M 159.855469 196.734375 C 160.585938 196.003906 161.589844 195.554688 162.703125 195.554688 C 163.816406 195.554688 164.824219 196.003906 165.554688 196.734375 C 166.28125 197.460938 166.734375 198.46875 166.734375 199.582031 C 166.734375 200.695312 166.28125 201.703125 165.554688 202.433594 C 164.824219 203.160156 163.816406 203.613281 162.703125 203.613281 C 161.589844 203.613281 160.585938 203.160156 159.855469 202.433594 C 159.125 201.703125 158.675781 200.695312 158.675781 199.582031 C 158.675781 198.46875 159.125 197.460938 159.855469 196.734375 " fill-opacity="1" fill-rule="evenodd"/></g><g clip-path="url(#c2c866af9e)"><path fill="#96dbbe" d="M 162.703125 129.65625 C 159.421875 129.65625 156.449219 130.984375 154.296875 133.136719 C 152.144531 135.289062 150.8125 138.257812 150.8125 141.542969 C 150.8125 144.511719 151.902344 147.226562 153.703125 149.308594 L 126.945312 195.652344 L 73.398438 195.652344 C 72.804688 193.949219 71.832031 192.425781 70.582031 191.179688 C 68.429688 189.023438 65.457031 187.695312 62.175781 187.695312 C 58.894531 187.695312 55.921875 189.023438 53.769531 191.179688 C 51.617188 193.328125 50.289062 196.300781 50.289062 199.582031 C 50.289062 202.863281 51.617188 205.839844 53.769531 207.988281 C 55.921875 210.140625 58.894531 211.472656 62.175781 211.472656 C 65.457031 211.472656 68.429688 210.140625 70.582031 207.988281 C 71.832031 206.738281 72.804688 205.214844 73.398438 203.511719 L 131.445312 203.511719 L 132.589844 201.53125 L 160.476562 153.222656 C 161.199219 153.359375 161.941406 153.429688 162.703125 153.429688 C 165.984375 153.429688 168.957031 152.097656 171.109375 149.949219 C 173.261719 147.796875 174.59375 144.828125 174.59375 141.542969 C 174.59375 138.257812 173.261719 135.289062 171.109375 133.136719 C 168.957031 130.984375 165.984375 129.65625 162.703125 129.65625 Z M 158.675781 141.542969 C 158.675781 140.429688 159.125 139.421875 159.855469 138.695312 C 160.582031 137.964844 161.589844 137.515625 162.703125 137.515625 C 163.816406 137.515625 164.824219 137.964844 165.554688 138.695312 C 166.28125 139.421875 166.730469 140.429688 166.730469 141.542969 C 166.730469 142.65625 166.28125 143.664062 165.554688 144.390625 C 164.824219 145.121094 163.816406 145.570312 162.703125 145.570312 C 161.589844 145.570312 160.582031 145.121094 159.855469 144.390625 C 159.125 143.664062 158.675781 142.65625 158.675781 141.542969 Z M 59.328125 196.734375 C 60.054688 196.003906 61.0625 195.554688 62.175781 195.554688 C 63.289062 195.554688 64.296875 196.003906 65.027344 196.734375 C 65.753906 197.460938 66.203125 198.46875 66.203125 199.582031 C 66.203125 200.695312 65.753906 201.703125 65.027344 202.433594 C 64.296875 203.160156 63.289062 203.613281 62.175781 203.613281 C 61.0625 203.613281 60.054688 203.160156 59.328125 202.433594 C 58.597656 201.703125 58.148438 200.695312 58.148438 199.582031 C 58.148438 198.46875 58.597656 197.460938 59.328125 196.734375 " fill-opacity="1" fill-rule="evenodd"/></g><path fill="#116246" d="M 120.84375 162.15625 C 118.695312 160.003906 115.722656 158.675781 112.441406 158.675781 C 109.15625 158.675781 106.183594 160.003906 104.03125 162.15625 C 102.785156 163.40625 101.8125 164.933594 101.21875 166.632812 L 47.671875 166.632812 L 20.914062 120.289062 C 22.710938 118.207031 23.800781 115.492188 23.800781 112.523438 C 23.800781 109.242188 22.46875 106.269531 20.316406 104.117188 C 18.167969 101.964844 15.195312 100.636719 11.914062 100.636719 C 8.628906 100.636719 5.660156 101.964844 3.503906 104.117188 C 1.355469 106.269531 0.0234375 109.242188 0.0234375 112.523438 C 0.0234375 115.804688 1.355469 118.777344 3.503906 120.929688 C 5.660156 123.082031 8.628906 124.410156 11.914062 124.410156 C 12.671875 124.410156 13.417969 124.339844 14.136719 124.203125 L 42.03125 172.511719 L 43.171875 174.492188 L 101.21875 174.492188 C 101.8125 176.195312 102.785156 177.71875 104.03125 178.96875 C 106.183594 181.121094 109.15625 182.449219 112.441406 182.449219 C 115.722656 182.449219 118.695312 181.121094 120.84375 178.96875 C 123 176.816406 124.328125 173.84375 124.328125 170.5625 C 124.328125 167.28125 123 164.308594 120.84375 162.15625 Z M 109.589844 167.714844 C 110.320312 166.984375 111.328125 166.535156 112.441406 166.535156 C 113.554688 166.535156 114.5625 166.984375 115.289062 167.714844 C 116.019531 168.441406 116.46875 169.449219 116.46875 170.5625 C 116.46875 171.675781 116.019531 172.683594 115.289062 173.414062 C 114.5625 174.140625 113.554688 174.589844 112.441406 174.589844 C 111.328125 174.589844 110.320312 174.140625 109.589844 173.414062 C 108.863281 172.683594 108.410156 171.675781 108.410156 170.5625 C 108.410156 169.449219 108.863281 168.441406 109.589844 167.714844 Z M 14.761719 109.671875 C 15.488281 110.402344 15.941406 111.410156 15.941406 112.523438 C 15.941406 113.636719 15.488281 114.644531 14.761719 115.371094 C 14.03125 116.101562 13.027344 116.550781 11.914062 116.550781 C 10.800781 116.550781 9.792969 116.101562 9.0625 115.371094 C 8.335938 114.644531 7.882812 113.636719 7.882812 112.523438 C 7.882812 111.410156 8.335938 110.402344 9.0625 109.671875 C 9.792969 108.945312 10.800781 108.496094 11.914062 108.496094 C 13.027344 108.496094 14.03125 108.945312 14.761719 109.671875 " fill-opacity="1" fill-rule="evenodd"/><g clip-path="url(#7a19888862)"><path fill="#22755b" d="M 74.066406 141.542969 C 74.066406 138.257812 72.734375 135.289062 70.582031 133.136719 C 68.429688 130.984375 65.457031 129.65625 62.175781 129.65625 C 61.417969 129.65625 60.675781 129.726562 59.957031 129.859375 L 33.191406 83.496094 L 59.949219 37.144531 C 60.671875 37.28125 61.414062 37.351562 62.175781 37.351562 C 65.457031 37.351562 68.429688 36.019531 70.582031 33.871094 C 72.734375 31.71875 74.066406 28.746094 74.066406 25.464844 C 74.066406 22.179688 72.734375 19.207031 70.582031 17.058594 C 68.429688 14.90625 65.457031 13.574219 62.175781 13.574219 C 58.894531 13.574219 55.921875 14.90625 53.769531 17.058594 C 51.617188 19.207031 50.289062 22.179688 50.289062 25.464844 C 50.289062 28.429688 51.375 31.144531 53.175781 33.226562 L 25.273438 81.554688 L 24.144531 83.511719 L 25.273438 85.46875 L 53.167969 133.78125 C 51.375 135.867188 50.289062 138.578125 50.289062 141.542969 C 50.289062 144.828125 51.617188 147.796875 53.769531 149.949219 C 55.921875 152.097656 58.894531 153.429688 62.175781 153.429688 C 65.457031 153.429688 68.429688 152.097656 70.582031 149.949219 C 72.734375 147.796875 74.066406 144.828125 74.066406 141.542969 Z M 59.328125 138.695312 C 60.054688 137.964844 61.0625 137.515625 62.175781 137.515625 C 63.289062 137.515625 64.296875 137.964844 65.027344 138.695312 C 65.753906 139.421875 66.203125 140.429688 66.203125 141.542969 C 66.203125 142.65625 65.753906 143.664062 65.027344 144.390625 C 64.296875 145.121094 63.289062 145.570312 62.175781 145.570312 C 61.0625 145.570312 60.054688 145.121094 59.328125 144.390625 C 58.597656 143.664062 58.148438 142.65625 58.148438 141.542969 C 58.148438 140.429688 58.597656 139.421875 59.328125 138.695312 Z M 62.175781 29.492188 C 61.0625 29.492188 60.054688 29.039062 59.328125 28.3125 C 58.597656 27.582031 58.148438 26.574219 58.148438 25.464844 C 58.148438 24.351562 58.597656 23.34375 59.328125 22.613281 C 60.054688 21.886719 61.0625 21.4375 62.175781 21.4375 C 63.289062 21.4375 64.296875 21.886719 65.027344 22.613281 C 65.753906 23.34375 66.203125 24.351562 66.203125 25.464844 C 66.203125 26.574219 65.753906 27.582031 65.023438 28.3125 C 64.296875 29.039062 63.289062 29.492188 62.175781 29.492188 " fill-opacity="1" fill-rule="evenodd"/></g></svg>