<svg xmlns="http://www.w3.org/2000/svg" xmlns:xlink="http://www.w3.org/1999/xlink" width="300" zoomAndPan="magnify" viewBox="0 0 224.87999 37.5" height="50" preserveAspectRatio="xMidYMid meet" version="1.0"><defs><g/><clipPath id="a7a7a9b395"><path d="M 20 5 L 43.609375 5 L 43.609375 21 L 20 21 Z M 20 5 " clip-rule="nonzero"/></clipPath><clipPath id="9624e629bc"><path d="M 29 10 L 40 10 L 40 37.007812 L 29 37.007812 Z M 29 10 " clip-rule="nonzero"/></clipPath><clipPath id="4940148229"><path d="M 10 21 L 35 21 L 35 37.007812 L 10 37.007812 Z M 10 21 " clip-rule="nonzero"/></clipPath><clipPath id="6f9ec11688"><path d="M 1.421875 16 L 25 16 L 25 32 L 1.421875 32 Z M 1.421875 16 " clip-rule="nonzero"/></clipPath></defs><path fill="#2aa873" d="M 14.660156 14.652344 C 15.066406 14.25 15.3125 13.695312 15.3125 13.082031 C 15.3125 12.527344 15.109375 12.019531 14.773438 11.628906 L 19.792969 2.960938 L 29.839844 2.960938 C 29.949219 3.28125 30.132812 3.566406 30.367188 3.800781 C 30.769531 4.203125 31.328125 4.449219 31.945312 4.449219 C 32.558594 4.449219 33.117188 4.203125 33.523438 3.800781 C 33.925781 3.398438 34.175781 2.839844 34.175781 2.226562 C 34.175781 1.613281 33.925781 1.058594 33.523438 0.65625 C 33.117188 0.253906 32.558594 0.00390625 31.945312 0.00390625 C 31.328125 0.00390625 30.769531 0.253906 30.367188 0.65625 C 30.132812 0.890625 29.949219 1.175781 29.839844 1.492188 L 18.949219 1.492188 L 18.734375 1.863281 L 13.5 10.898438 C 13.367188 10.871094 13.226562 10.859375 13.082031 10.859375 C 12.46875 10.859375 11.910156 11.105469 11.507812 11.507812 C 11.101562 11.910156 10.851562 12.46875 10.851562 13.082031 C 10.851562 13.695312 11.101562 14.25 11.507812 14.652344 C 11.910156 15.054688 12.46875 15.304688 13.082031 15.304688 C 13.699219 15.304688 14.257812 15.054688 14.660156 14.652344 Z M 12.550781 12.546875 C 12.6875 12.410156 12.875 12.328125 13.082031 12.328125 C 13.292969 12.328125 13.480469 12.410156 13.617188 12.546875 C 13.753906 12.683594 13.839844 12.871094 13.839844 13.082031 C 13.839844 13.289062 13.753906 13.476562 13.617188 13.613281 C 13.480469 13.75 13.292969 13.835938 13.082031 13.835938 C 12.875 13.835938 12.6875 13.75 12.550781 13.613281 C 12.414062 13.476562 12.328125 13.289062 12.328125 13.082031 C 12.328125 12.871094 12.414062 12.683594 12.550781 12.546875 Z M 31.410156 1.695312 C 31.546875 1.558594 31.734375 1.472656 31.945312 1.472656 C 32.152344 1.472656 32.34375 1.558594 32.480469 1.695312 C 32.617188 1.832031 32.699219 2.019531 32.699219 2.226562 C 32.699219 2.433594 32.617188 2.625 32.480469 2.761719 C 32.34375 2.894531 32.152344 2.980469 31.945312 2.980469 C 31.734375 2.980469 31.546875 2.894531 31.410156 2.761719 C 31.273438 2.625 31.1875 2.433594 31.1875 2.226562 C 31.1875 2.019531 31.273438 1.832031 31.410156 1.695312 " fill-opacity="1" fill-rule="evenodd"/><g clip-path="url(#a7a7a9b395)"><path fill="#57c59a" d="M 20.9375 9.226562 C 21.339844 9.628906 21.898438 9.878906 22.515625 9.878906 C 23.128906 9.878906 23.6875 9.628906 24.089844 9.226562 C 24.324219 8.992188 24.507812 8.707031 24.621094 8.390625 L 34.667969 8.390625 L 39.6875 17.054688 C 39.347656 17.445312 39.144531 17.953125 39.144531 18.507812 C 39.144531 19.121094 39.394531 19.675781 39.796875 20.078125 C 40.203125 20.480469 40.757812 20.730469 41.375 20.730469 C 41.992188 20.730469 42.546875 20.480469 42.953125 20.078125 C 43.355469 19.675781 43.605469 19.121094 43.605469 18.507812 C 43.605469 17.894531 43.355469 17.339844 42.953125 16.9375 C 42.546875 16.53125 41.992188 16.285156 41.375 16.285156 C 41.230469 16.285156 41.09375 16.296875 40.957031 16.324219 L 35.722656 7.289062 L 35.511719 6.917969 L 24.621094 6.917969 C 24.507812 6.601562 24.324219 6.316406 24.089844 6.082031 C 23.6875 5.679688 23.128906 5.429688 22.515625 5.429688 C 21.898438 5.429688 21.339844 5.679688 20.9375 6.082031 C 20.53125 6.484375 20.285156 7.039062 20.285156 7.652344 C 20.285156 8.269531 20.53125 8.824219 20.9375 9.226562 Z M 21.980469 8.1875 C 21.84375 8.050781 21.757812 7.863281 21.757812 7.652344 C 21.757812 7.445312 21.84375 7.257812 21.980469 7.121094 C 22.117188 6.984375 22.304688 6.902344 22.515625 6.902344 C 22.722656 6.902344 22.910156 6.984375 23.046875 7.121094 C 23.183594 7.257812 23.269531 7.445312 23.269531 7.652344 C 23.269531 7.863281 23.183594 8.050781 23.046875 8.1875 C 22.910156 8.324219 22.722656 8.40625 22.515625 8.40625 C 22.304688 8.40625 22.117188 8.324219 21.980469 8.1875 Z M 40.839844 17.976562 C 40.976562 17.839844 41.164062 17.753906 41.375 17.753906 C 41.582031 17.753906 41.773438 17.839844 41.910156 17.976562 C 42.046875 18.109375 42.132812 18.300781 42.132812 18.507812 C 42.132812 18.714844 42.046875 18.902344 41.910156 19.039062 C 41.773438 19.175781 41.582031 19.261719 41.375 19.261719 C 41.164062 19.261719 40.976562 19.175781 40.839844 19.039062 C 40.703125 18.902344 40.617188 18.714844 40.617188 18.507812 C 40.617188 18.300781 40.703125 18.109375 40.839844 17.976562 " fill-opacity="1" fill-rule="evenodd"/></g><g clip-path="url(#9624e629bc)"><path fill="#6bcca6" d="M 29.714844 13.082031 C 29.714844 13.695312 29.964844 14.25 30.367188 14.652344 C 30.769531 15.054688 31.328125 15.304688 31.945312 15.304688 C 32.085938 15.304688 32.226562 15.289062 32.363281 15.265625 L 37.382812 23.933594 L 32.363281 32.601562 C 32.226562 32.578125 32.085938 32.566406 31.945312 32.566406 C 31.328125 32.566406 30.769531 32.8125 30.367188 33.214844 C 29.964844 33.617188 29.714844 34.175781 29.714844 34.789062 C 29.714844 35.402344 29.964844 35.957031 30.367188 36.359375 C 30.769531 36.761719 31.328125 37.011719 31.945312 37.011719 C 32.558594 37.011719 33.117188 36.761719 33.523438 36.359375 C 33.925781 35.957031 34.175781 35.402344 34.175781 34.789062 C 34.175781 34.234375 33.972656 33.726562 33.632812 33.335938 L 38.867188 24.300781 L 39.078125 23.933594 L 38.867188 23.570312 L 33.632812 14.53125 C 33.972656 14.144531 34.175781 13.636719 34.175781 13.082031 C 34.175781 12.46875 33.925781 11.910156 33.523438 11.507812 C 33.117188 11.105469 32.558594 10.859375 31.945312 10.859375 C 31.328125 10.859375 30.769531 11.105469 30.367188 11.507812 C 29.964844 11.910156 29.714844 12.46875 29.714844 13.082031 Z M 31.945312 13.835938 C 31.734375 13.835938 31.546875 13.75 31.410156 13.613281 C 31.273438 13.476562 31.1875 13.289062 31.1875 13.082031 C 31.1875 12.871094 31.273438 12.683594 31.410156 12.546875 C 31.546875 12.410156 31.734375 12.328125 31.945312 12.328125 C 32.152344 12.328125 32.34375 12.410156 32.480469 12.546875 C 32.617188 12.683594 32.699219 12.871094 32.699219 13.082031 C 32.699219 13.289062 32.617188 13.476562 32.480469 13.613281 C 32.34375 13.75 32.152344 13.835938 31.945312 13.835938 Z M 31.410156 34.253906 C 31.546875 34.117188 31.734375 34.035156 31.945312 34.035156 C 32.152344 34.035156 32.34375 34.117188 32.480469 34.253906 C 32.617188 34.390625 32.699219 34.578125 32.699219 34.789062 C 32.699219 34.996094 32.617188 35.183594 32.480469 35.320312 C 32.34375 35.457031 32.152344 35.542969 31.945312 35.542969 C 31.734375 35.542969 31.546875 35.457031 31.410156 35.320312 C 31.273438 35.183594 31.1875 34.996094 31.1875 34.789062 C 31.1875 34.578125 31.273438 34.390625 31.410156 34.253906 " fill-opacity="1" fill-rule="evenodd"/></g><g clip-path="url(#4940148229)"><path fill="#96dbbe" d="M 31.945312 21.710938 C 31.328125 21.710938 30.769531 21.960938 30.367188 22.363281 C 29.964844 22.765625 29.714844 23.320312 29.714844 23.933594 C 29.714844 24.488281 29.917969 24.996094 30.253906 25.386719 L 25.234375 34.054688 L 15.1875 34.054688 C 15.078125 33.734375 14.894531 33.449219 14.660156 33.214844 C 14.257812 32.8125 13.699219 32.566406 13.082031 32.566406 C 12.46875 32.566406 11.910156 32.8125 11.507812 33.214844 C 11.101562 33.617188 10.851562 34.175781 10.851562 34.789062 C 10.851562 35.402344 11.101562 35.957031 11.507812 36.359375 C 11.910156 36.761719 12.46875 37.011719 13.082031 37.011719 C 13.699219 37.011719 14.257812 36.761719 14.660156 36.359375 C 14.894531 36.125 15.078125 35.839844 15.1875 35.523438 L 26.078125 35.523438 L 26.292969 35.152344 L 31.527344 26.117188 C 31.664062 26.144531 31.800781 26.15625 31.945312 26.15625 C 32.558594 26.15625 33.117188 25.910156 33.519531 25.507812 C 33.925781 25.105469 34.175781 24.546875 34.175781 23.933594 C 34.175781 23.320312 33.925781 22.765625 33.519531 22.363281 C 33.117188 21.960938 32.558594 21.710938 31.945312 21.710938 Z M 31.1875 23.933594 C 31.1875 23.726562 31.273438 23.539062 31.410156 23.402344 C 31.546875 23.265625 31.734375 23.179688 31.945312 23.179688 C 32.152344 23.179688 32.34375 23.265625 32.480469 23.402344 C 32.617188 23.539062 32.699219 23.726562 32.699219 23.933594 C 32.699219 24.140625 32.617188 24.332031 32.480469 24.46875 C 32.34375 24.601562 32.152344 24.6875 31.945312 24.6875 C 31.734375 24.6875 31.546875 24.601562 31.410156 24.46875 C 31.273438 24.332031 31.1875 24.140625 31.1875 23.933594 Z M 12.550781 34.253906 C 12.6875 34.117188 12.875 34.035156 13.082031 34.035156 C 13.292969 34.035156 13.480469 34.117188 13.617188 34.253906 C 13.753906 34.390625 13.839844 34.578125 13.839844 34.789062 C 13.839844 34.996094 13.753906 35.183594 13.617188 35.320312 C 13.480469 35.457031 13.292969 35.542969 13.082031 35.542969 C 12.875 35.542969 12.6875 35.457031 12.550781 35.320312 C 12.414062 35.183594 12.328125 34.996094 12.328125 34.789062 C 12.328125 34.578125 12.414062 34.390625 12.550781 34.253906 " fill-opacity="1" fill-rule="evenodd"/></g><g clip-path="url(#6f9ec11688)"><path fill="#116246" d="M 24.089844 27.789062 C 23.6875 27.386719 23.128906 27.136719 22.515625 27.136719 C 21.898438 27.136719 21.339844 27.386719 20.9375 27.789062 C 20.703125 28.023438 20.519531 28.308594 20.410156 28.625 L 10.363281 28.625 L 5.34375 19.960938 C 5.679688 19.570312 5.882812 19.0625 5.882812 18.507812 C 5.882812 17.894531 5.632812 17.339844 5.230469 16.9375 C 4.828125 16.53125 4.269531 16.285156 3.652344 16.285156 C 3.039062 16.285156 2.480469 16.53125 2.074219 16.9375 C 1.671875 17.339844 1.421875 17.894531 1.421875 18.507812 C 1.421875 19.121094 1.671875 19.675781 2.074219 20.078125 C 2.480469 20.480469 3.039062 20.730469 3.652344 20.730469 C 3.796875 20.730469 3.933594 20.71875 4.070312 20.691406 L 9.304688 29.726562 L 9.519531 30.097656 L 20.410156 30.097656 C 20.519531 30.414062 20.703125 30.699219 20.9375 30.933594 C 21.339844 31.335938 21.898438 31.585938 22.515625 31.585938 C 23.128906 31.585938 23.6875 31.335938 24.089844 30.933594 C 24.496094 30.53125 24.746094 29.976562 24.746094 29.359375 C 24.746094 28.746094 24.496094 28.191406 24.089844 27.789062 Z M 21.980469 28.828125 C 22.117188 28.691406 22.304688 28.609375 22.515625 28.609375 C 22.722656 28.609375 22.910156 28.691406 23.046875 28.828125 C 23.183594 28.964844 23.269531 29.152344 23.269531 29.359375 C 23.269531 29.570312 23.183594 29.757812 23.046875 29.894531 C 22.910156 30.03125 22.722656 30.113281 22.515625 30.113281 C 22.304688 30.113281 22.117188 30.03125 21.980469 29.894531 C 21.84375 29.757812 21.757812 29.570312 21.757812 29.359375 C 21.757812 29.152344 21.84375 28.964844 21.980469 28.828125 Z M 4.1875 17.976562 C 4.324219 18.109375 4.410156 18.300781 4.410156 18.507812 C 4.410156 18.714844 4.324219 18.902344 4.1875 19.039062 C 4.050781 19.175781 3.863281 19.261719 3.652344 19.261719 C 3.445312 19.261719 3.253906 19.175781 3.117188 19.039062 C 2.980469 18.902344 2.898438 18.714844 2.898438 18.507812 C 2.898438 18.300781 2.980469 18.109375 3.117188 17.976562 C 3.253906 17.839844 3.445312 17.753906 3.652344 17.753906 C 3.863281 17.753906 4.050781 17.839844 4.1875 17.976562 " fill-opacity="1" fill-rule="evenodd"/></g><path fill="#22755b" d="M 15.3125 23.933594 C 15.3125 23.320312 15.066406 22.765625 14.660156 22.363281 C 14.257812 21.960938 13.699219 21.710938 13.082031 21.710938 C 12.941406 21.710938 12.800781 21.722656 12.667969 21.75 L 7.644531 13.078125 L 12.664062 4.410156 C 12.800781 4.4375 12.941406 4.449219 13.082031 4.449219 C 13.699219 4.449219 14.257812 4.203125 14.660156 3.800781 C 15.066406 3.398438 15.3125 2.839844 15.3125 2.226562 C 15.3125 1.613281 15.066406 1.058594 14.660156 0.65625 C 14.257812 0.253906 13.699219 0.00390625 13.082031 0.00390625 C 12.46875 0.00390625 11.910156 0.253906 11.507812 0.65625 C 11.101562 1.058594 10.851562 1.613281 10.851562 2.226562 C 10.851562 2.78125 11.058594 3.289062 11.394531 3.679688 L 6.160156 12.714844 L 5.949219 13.082031 L 6.160156 13.449219 L 11.394531 22.484375 C 11.058594 22.871094 10.851562 23.378906 10.851562 23.933594 C 10.851562 24.546875 11.101562 25.105469 11.507812 25.507812 C 11.910156 25.910156 12.46875 26.15625 13.082031 26.15625 C 13.699219 26.15625 14.257812 25.910156 14.660156 25.507812 C 15.066406 25.105469 15.3125 24.546875 15.3125 23.933594 Z M 12.550781 23.402344 C 12.6875 23.265625 12.875 23.179688 13.082031 23.179688 C 13.292969 23.179688 13.480469 23.265625 13.617188 23.402344 C 13.753906 23.539062 13.839844 23.726562 13.839844 23.933594 C 13.839844 24.140625 13.753906 24.332031 13.617188 24.46875 C 13.480469 24.601562 13.292969 24.6875 13.082031 24.6875 C 12.875 24.6875 12.6875 24.601562 12.550781 24.46875 C 12.414062 24.332031 12.328125 24.140625 12.328125 23.933594 C 12.328125 23.726562 12.414062 23.539062 12.550781 23.402344 Z M 13.082031 2.980469 C 12.875 2.980469 12.6875 2.894531 12.550781 2.761719 C 12.414062 2.625 12.328125 2.433594 12.328125 2.226562 C 12.328125 2.019531 12.414062 1.832031 12.550781 1.695312 C 12.6875 1.558594 12.875 1.472656 13.082031 1.472656 C 13.292969 1.472656 13.480469 1.558594 13.617188 1.695312 C 13.753906 1.832031 13.839844 2.019531 13.839844 2.226562 C 13.839844 2.433594 13.753906 2.625 13.617188 2.761719 C 13.480469 2.894531 13.292969 2.980469 13.082031 2.980469 " fill-opacity="1" fill-rule="evenodd"/><g fill="#4aad84" fill-opacity="1"><g transform="translate(48.291651, 30.547166)"><g><path d="M 5.597656 -16.324219 C 2.984375 -16.253906 0.933594 -14.179688 0.933594 -11.660156 L 0.933594 -4.664062 C 0.933594 -2.027344 3.101562 0 5.597656 0 L 12.59375 0 C 15.207031 0 17.257812 -2.191406 17.257812 -4.664062 L 14.925781 -4.664062 C 14.925781 -3.382812 13.875 -2.332031 12.59375 -2.332031 L 5.597656 -2.332031 C 4.316406 -2.332031 3.265625 -3.382812 3.265625 -4.664062 L 3.265625 -11.660156 C 3.265625 -12.945312 4.316406 -13.992188 5.597656 -13.992188 L 12.59375 -13.992188 C 13.875 -13.992188 14.925781 -12.945312 14.925781 -11.660156 L 17.257812 -11.660156 C 17.1875 -14.25 15.089844 -16.324219 12.59375 -16.324219 Z M 5.597656 -16.324219 "/></g></g></g><g fill="#4aad84" fill-opacity="1"><g transform="translate(66.243601, 30.547166)"><g><path d="M 12.828125 -13.992188 C 14.109375 -13.992188 15.160156 -12.945312 15.160156 -11.660156 L 15.160156 -6.996094 L 3.5 -6.996094 L 3.5 -11.660156 C 3.5 -12.945312 4.546875 -13.992188 5.832031 -13.992188 Z M 17.492188 -11.660156 C 17.421875 -14.25 15.320312 -16.324219 12.828125 -16.324219 L 5.832031 -16.324219 C 3.21875 -16.324219 1.167969 -14.132812 1.167969 -11.660156 L 1.167969 0 L 3.5 0 L 3.5 -4.664062 L 15.160156 -4.664062 L 15.160156 0 L 17.492188 0 Z M 17.492188 -11.660156 "/></g></g></g><g fill="#4aad84" fill-opacity="1"><g transform="translate(84.894982, 30.547166)"><g><path d="M 17.257812 -4.664062 C 17.257812 -7.253906 15.042969 -9.328125 12.59375 -9.328125 L 5.597656 -9.328125 C 4.316406 -9.328125 3.265625 -10.378906 3.265625 -11.660156 C 3.265625 -12.945312 4.316406 -13.992188 5.597656 -13.992188 L 12.59375 -13.992188 C 13.875 -13.992188 14.925781 -12.945312 14.925781 -11.660156 L 17.257812 -11.660156 C 17.1875 -14.25 15.089844 -16.324219 12.59375 -16.324219 L 5.597656 -16.324219 C 2.984375 -16.324219 0.933594 -14.132812 0.933594 -11.660156 C 0.933594 -9.027344 3.101562 -6.996094 5.597656 -6.996094 L 12.59375 -6.996094 C 13.875 -6.996094 14.925781 -5.945312 14.925781 -4.664062 C 14.925781 -3.382812 13.875 -2.332031 12.59375 -2.332031 L 5.597656 -2.332031 C 4.316406 -2.332031 3.265625 -3.382812 3.265625 -4.664062 L 0.933594 -4.664062 C 1.003906 -2.027344 3.054688 0 5.597656 0 L 12.59375 0 C 15.207031 0 17.257812 -2.191406 17.257812 -4.664062 Z M 17.257812 -4.664062 "/></g></g></g><g fill="#4aad84" fill-opacity="1"><g transform="translate(103.080077, 30.547166)"><g><path d="M 17.257812 -4.664062 C 17.257812 -7.253906 15.042969 -9.328125 12.59375 -9.328125 L 5.597656 -9.328125 C 4.316406 -9.328125 3.265625 -10.378906 3.265625 -11.660156 C 3.265625 -12.945312 4.316406 -13.992188 5.597656 -13.992188 L 12.59375 -13.992188 C 13.875 -13.992188 14.925781 -12.945312 14.925781 -11.660156 L 17.257812 -11.660156 C 17.1875 -14.25 15.089844 -16.324219 12.59375 -16.324219 L 5.597656 -16.324219 C 2.984375 -16.324219 0.933594 -14.132812 0.933594 -11.660156 C 0.933594 -9.027344 3.101562 -6.996094 5.597656 -6.996094 L 12.59375 -6.996094 C 13.875 -6.996094 14.925781 -5.945312 14.925781 -4.664062 C 14.925781 -3.382812 13.875 -2.332031 12.59375 -2.332031 L 5.597656 -2.332031 C 4.316406 -2.332031 3.265625 -3.382812 3.265625 -4.664062 L 0.933594 -4.664062 C 1.003906 -2.027344 3.054688 0 5.597656 0 L 12.59375 0 C 15.207031 0 17.257812 -2.191406 17.257812 -4.664062 Z M 17.257812 -4.664062 "/></g></g></g><g fill="#4aad84" fill-opacity="1"><g transform="translate(121.265171, 30.547166)"><g><path d="M 14.925781 -4.664062 C 14.925781 -3.382812 13.875 -2.332031 12.59375 -2.332031 L 5.597656 -2.332031 C 4.316406 -2.332031 3.265625 -3.382812 3.265625 -4.664062 L 3.265625 -11.660156 C 3.265625 -12.945312 4.316406 -13.992188 5.597656 -13.992188 L 12.59375 -13.992188 C 13.875 -13.992188 14.925781 -12.945312 14.925781 -11.660156 Z M 17.257812 -11.660156 C 17.257812 -14.203125 15.066406 -16.324219 12.59375 -16.324219 L 5.597656 -16.324219 C 3.03125 -16.324219 0.933594 -14.226562 0.933594 -11.660156 L 0.933594 -4.664062 C 0.933594 -2.074219 3.007812 0 5.597656 0 L 12.59375 0 C 15.160156 0 17.257812 -2.097656 17.257812 -4.664062 Z M 17.257812 -11.660156 "/></g></g></g><g fill="#4aad84" fill-opacity="1"><g transform="translate(139.450265, 30.547166)"><g/></g></g><g fill="#27503d" fill-opacity="1"><g transform="translate(148.764508, 30.547166)"><g><path d="M 3.5 -16.324219 L 1.167969 -16.324219 L 1.167969 0 L 17.492188 0 L 17.492188 -2.332031 L 3.5 -2.332031 Z M 3.5 -16.324219 "/></g></g></g><g fill="#27503d" fill-opacity="1"><g transform="translate(166.250172, 30.547166)"><g><path d="M 16.324219 -13.992188 L 16.324219 -16.324219 L 0 -16.324219 L 0 -13.992188 L 6.996094 -13.992188 L 6.996094 0 L 9.328125 0 L 9.328125 -13.992188 Z M 16.324219 -13.992188 "/></g></g></g><g fill="#27503d" fill-opacity="1"><g transform="translate(182.57012, 30.547166)"><g><path d="M 15.160156 -4.664062 C 15.160156 -3.382812 14.109375 -2.332031 12.828125 -2.332031 L 3.5 -2.332031 L 3.5 -13.992188 L 12.828125 -13.992188 C 14.109375 -13.992188 15.160156 -12.945312 15.160156 -11.660156 Z M 17.492188 -11.660156 C 17.421875 -14.25 15.320312 -16.324219 12.828125 -16.324219 L 1.167969 -16.324219 L 1.167969 0 L 12.828125 0 C 15.4375 0 17.492188 -2.191406 17.492188 -4.664062 Z M 17.492188 -11.660156 "/></g></g></g></svg>